<?xml version="1.0" encoding="iso-8859-1"?>
<!-- Generator: Adobe Illustrator 22.0.1, SVG Export Plug-In . SVG Version: 6.00 Build 0)  -->
<svg version="1.1" id="Layer_1" xmlns="http://www.w3.org/2000/svg" xmlns:xlink="http://www.w3.org/1999/xlink" x="0px" y="0px"
	 viewBox="0 0 100.25 100.25" style="enable-background:new 0 0 100.25 100.25;" xml:space="preserve">
<g>
	<path d="M49.914,62.298c-17.062,0-30.942,13.88-30.942,30.941c0,0.828,0.671,1.5,1.5,1.5h58.885c0.829,0,1.5-0.672,1.5-1.5
		C80.857,76.178,66.976,62.298,49.914,62.298z M40.323,91.74v-17.5c0-0.828-0.671-1.5-1.5-1.5s-1.5,0.672-1.5,1.5v17.5H22.011
		c0.782-14.713,12.999-26.441,27.903-26.441c14.905,0,27.121,11.729,27.903,26.441H40.323z"/>
	<path d="M31.323,24.124v12.115c0,0.16,0.032,0.312,0.078,0.457c-0.377,1.446-0.578,2.935-0.578,4.442
		c0,9.87,8.18,17.899,18.233,17.899c10.059,0,18.242-8.029,18.242-17.899c0-1.796-0.271-3.569-0.805-5.271
		c-0.04-0.129-0.101-0.244-0.17-0.352v-11.39c2.878-2.085,4.354-5.594,3.792-9.171c-0.643-4.088-3.969-7.321-8.09-7.865l0,0
		c-1.695-0.221-3.406,0.013-4.957,0.665c-1.697-2.793-4.779-4.58-8.11-4.58c-3.386,0-6.484,1.821-8.166,4.672
		c-1.561-0.704-3.296-0.974-5.028-0.774c-4.193,0.49-7.577,3.73-8.23,7.879C26.969,18.529,28.444,22.038,31.323,24.124z
		 M49.057,56.037c-8.4,0-15.233-6.684-15.233-14.899c0-1.151,0.136-2.29,0.401-3.398h29.673c0.265,1.109,0.402,2.247,0.402,3.398
		C64.299,49.354,57.461,56.037,49.057,56.037z M30.496,15.416c0.438-2.78,2.799-5.036,5.615-5.365
		c1.617-0.188,3.166,0.198,4.487,1.119c0.383,0.268,0.867,0.339,1.312,0.199c0.444-0.142,0.798-0.481,0.957-0.92
		c0.924-2.558,3.372-4.276,6.09-4.276c2.663,0,5.093,1.672,6.048,4.159c0.162,0.423,0.506,0.75,0.937,0.89
		c0.429,0.139,0.9,0.077,1.281-0.169c1.314-0.854,2.839-1.197,4.41-0.99c2.768,0.364,5.088,2.617,5.519,5.355
		c0.417,2.651-0.798,5.245-3.094,6.608c-0.455,0.271-0.734,0.761-0.734,1.29v11.423h-29v-10h14.5c0.829,0,1.5-0.672,1.5-1.5
		s-0.671-1.5-1.5-1.5H33.18C31.159,20.32,30.105,17.9,30.496,15.416z"/>
	<circle cx="47.323" cy="78.847" r="2"/>
	<circle cx="47.323" cy="86.847" r="2"/>
</g>
</svg>
