<?xml version="1.0" encoding="iso-8859-1"?>
<!-- Generator: Adobe Illustrator 23.0.2, SVG Export Plug-In . SVG Version: 6.00 Build 0)  -->
<svg version="1.1" id="Layer_1" xmlns="http://www.w3.org/2000/svg" xmlns:xlink="http://www.w3.org/1999/xlink" x="0px" y="0px"
	 viewBox="0 0 30 18" style="enable-background:new 0 0 30 18;" xml:space="preserve">
<g id="food-sign_1_">
	<g>
		<path d="M15,0c-4.971,0-9,4.029-9,9s4.029,9,9,9s9-4.029,9-9S19.971,0,15,0z M15,16c-3.866,0-7-3.133-7-7s3.134-7,7-7
			c3.866,0,7,3.133,7,7S18.866,16,15,16z"/>
		<circle cx="15" cy="9" r="6"/>
	</g>
	<polygon points="4,0 4,5 3,5 3,0 2,0 2,5 1,5 1,0 0,0 0,7 2,7 2,18 3,18 3,7 5,7 5,0 	"/>
	<path d="M30,4c0-2.209-1.119-4-2.5-4C26.119,0,25,1.791,25,4c0,1.936,0.859,3.549,2,3.92V18h1V7.92C29.142,7.549,30,5.936,30,4z"/>
</g>
</svg>
